<svg version="1.1" xmlns="http://www.w3.org/2000/svg" viewBox="0 0 313.80670426294193 166.5" width="627.6134085258839" height="333">
  <!-- svg-source:excalidraw -->
  
  <defs>
    <style class="style-fonts">
      @font-face {
        font-family: "Virgil";
        src: url("https://excalidraw.com/Virgil.woff2");
      }
      @font-face {
        font-family: "Cascadia";
        src: url("https://excalidraw.com/Cascadia.woff2");
      }
    </style>
  </defs>
  <rect x="0" y="0" width="313.80670426294193" height="166.5" fill="#ffffff"></rect><g stroke-linecap="round"><g transform="translate(84.80670426294193 91.5) rotate(0 71.56068852096797 -0.3018168255761111)"><path d="M0.13 -0.35 C24.13 -0.38, 119.51 -0.21, 142.99 -0.25" stroke="#000000" stroke-width="1.5" fill="none" stroke-dasharray="8 9"></path></g><g transform="translate(84.80670426294193 91.5) rotate(0 71.56068852096797 -0.3018168255761111)"><path d="M114.21 11.66 C122.11 6.1, 127.53 3.89, 143.8 -0.99" stroke="#000000" stroke-width="1.5" fill="none"></path></g><g transform="translate(84.80670426294193 91.5) rotate(0 71.56068852096797 -0.3018168255761111)"><path d="M114.21 -8.87 C122.09 -10.01, 127.52 -7.81, 143.8 -0.99" stroke="#000000" stroke-width="1.5" fill="none"></path></g></g><mask></mask><g stroke-linecap="round" transform="translate(231.67252426446532 52.770246670219876) rotate(0 18.63417999847718 34.78380266382396)"><path d="M0 0 L37.27 0 L37.27 69.57 L0 69.57" stroke="none" stroke-width="0" fill="#ced4da"></path><path d="M0 0 C14.03 0, 28.06 0, 37.27 0 M0 0 C7.74 0, 15.47 0, 37.27 0 M37.27 0 C37.27 24.93, 37.27 49.86, 37.27 69.57 M37.27 0 C37.27 16.71, 37.27 33.41, 37.27 69.57 M37.27 69.57 C26.88 69.57, 16.5 69.57, 0 69.57 M37.27 69.57 C28.15 69.57, 19.02 69.57, 0 69.57 M0 69.57 C0 50.67, 0 31.77, 0 0 M0 69.57 C0 54.25, 0 38.94, 0 0" stroke="#000000" stroke-width="2" fill="none"></path></g><g stroke-linecap="round"><g transform="translate(236.15708159759572 60.46619733617558) rotate(0 14.286204665499099 1.1368683772161603e-13)"><path d="M0 0 C4.76 0, 23.81 0, 28.57 0 M0 0 C4.76 0, 23.81 0, 28.57 0" stroke="#000000" stroke-width="2" fill="none"></path></g></g><mask></mask><g stroke-linecap="round"><g transform="translate(236.02049959744284 66.86999511378394) rotate(0 14.286204665499099 1.1368683772161603e-13)"><path d="M0 0 C4.76 0, 23.81 0, 28.57 0 M0 0 C4.76 0, 23.81 0, 28.57 0" stroke="#000000" stroke-width="2" fill="none"></path></g></g><mask></mask><g stroke-linecap="round"><g transform="translate(235.98961426370363 73.27379289139321) rotate(0 14.286204665499099 1.1368683772161603e-13)"><path d="M0 0 C4.76 0, 23.81 0, 28.57 0 M0 0 C4.76 0, 23.81 0, 28.57 0" stroke="#000000" stroke-width="2" fill="none"></path></g></g><mask></mask><g stroke-linecap="round"><g transform="translate(235.98961426370363 79.67759066900203) rotate(0 14.286204665499099 1.1368683772161603e-13)"><path d="M0 0 C4.76 0, 23.81 0, 28.57 0 M0 0 C4.76 0, 23.81 0, 28.57 0" stroke="#000000" stroke-width="2" fill="none"></path></g></g><mask></mask><g stroke-linecap="round"><g transform="translate(21.19584556215898 119.36632772016537) rotate(0 1.602223707743633 -0.06511223299116864)"><path d="M0.06 -0.02 C1.25 0, 2.21 0.07, 3.12 -0.29 M-0.14 0.16 C1.13 -0.18, 2.68 -0.03, 3.35 0.15" stroke="#000000" stroke-width="4" fill="none"></path></g></g><mask></mask><g stroke-linecap="round"><g transform="translate(48.62915522755725 119.13185498798248) rotate(0 1.7067506423171608 0.07437619555241781)"><path d="M-0.02 0.24 C1.11 0.17, 2.27 -0.17, 2.99 0.29 M0.16 -0.14 C0.68 0.16, 1.68 0.09, 3.43 -0.11" stroke="#000000" stroke-width="4" fill="none"></path></g></g><mask></mask><g stroke-linecap="round"><g transform="translate(34.56079129658508 119.13185498798248) rotate(0 1.7156853208325629 -0.07661774591235826)"><path d="M0.24 0.02 C1.38 0.09, 2.23 -0.29, 3.57 -0.15 M-0.14 -0.15 C1.42 -0.03, 2.63 0.12, 3.17 -0.09" stroke="#000000" stroke-width="4" fill="none"></path></g></g><mask></mask><g stroke-linecap="round"><g transform="translate(61.994100961981644 118.89738225579958) rotate(0 1.5212418900005673 0.1058880885951794)"><path d="M0.02 0.18 C1.14 -0.19, 1.8 0.26, 3.13 0.3 M-0.15 0.14 C0.7 0.09, 1.55 -0.08, 3.2 -0.08" stroke="#000000" stroke-width="4" fill="none"></path></g></g><mask></mask><g stroke-linecap="round"><g transform="translate(27.995554795462795 119.36632772016537) rotate(0 1.8572901230538719 -0.0986925112889594)"><path d="M0.18 0.09 C0.8 -0.29, 2.21 -0.15, 3.58 -0.29 M0.14 0 C1.37 0.18, 2.51 -0.06, 3.2 -0.12" stroke="#000000" stroke-width="4" fill="none"></path></g></g><mask></mask><g stroke-linecap="round"><g transform="translate(55.42886446086027 119.13185498798248) rotate(0 1.5806659412726276 0.077654612481183)"><path d="M0.09 -0.17 C0.93 0.27, 2.3 0.28, 3 0.32 M0 0.06 C0.86 -0.14, 1.33 -0.11, 3.16 -0.13" stroke="#000000" stroke-width="4" fill="none"></path></g></g><mask></mask><g stroke-linecap="round"><g transform="translate(41.36050052988696 119.13185498798248) rotate(0 1.718963737761385 -0.06960699412832128)"><path d="M-0.17 -0.29 C1.29 -0.16, 2.3 -0.29, 3.61 -0.28 M0.06 0.15 C0.57 -0.09, 1.27 -0.13, 3.15 0.02" stroke="#000000" stroke-width="4" fill="none"></path></g></g><mask></mask><g stroke-linecap="round"><g transform="translate(68.79381019528466 118.89738225579958) rotate(0 1.5055228033210142 -0.003790828042610883)"><path d="M-0.29 0.29 C1.02 0.31, 2.05 0.34, 3.01 -0.31 M0.15 -0.11 C1.17 -0.1, 2.39 -0.14, 3.3 0.09" stroke="#000000" stroke-width="4" fill="none"></path></g></g><mask></mask><g stroke-linecap="round"><g transform="translate(75.35904669640593 119.13185498798202) rotate(0 1.6334666817602397 0.0336661883970919)"><path d="M0.29 -0.15 C1.37 -0.26, 2.47 -0.25, 2.98 0.27 M-0.11 -0.09 C0.91 -0.16, 1.85 -0.01, 3.38 -0.07" stroke="#000000" stroke-width="4" fill="none"></path></g></g><mask></mask><g stroke-linecap="round"><g transform="translate(24.712936544904323 122.88341870290833) rotate(0 1.7025702201421495 0.10111071493292911)"><path d="M-0.15 0.3 C0.53 0.29, 1.36 -0.33, 3.55 0.01 M-0.09 -0.08 C0.99 -0.11, 2.25 0.12, 3.22 -0.09" stroke="#000000" stroke-width="4" fill="none"></path></g></g><mask></mask><g stroke-linecap="round"><g transform="translate(18.85111824033072 122.88341870290833) rotate(0 1.602387113750126 -0.0641331145895947)"><path d="M0.3 -0.29 C1.02 -0.26, 1.08 0.29, 3.29 0.13 M-0.08 -0.12 C1.16 0.04, 2.67 -0.05, 3.19 -0.14" stroke="#000000" stroke-width="4" fill="none"></path></g></g><mask></mask><g stroke-linecap="round"><g transform="translate(52.146246210302024 122.64894597072589) rotate(0 1.5631382902071778 0.09670234205987072)"><path d="M-0.29 0.32 C1 -0.33, 2.81 -0.02, 3.41 0.3 M-0.12 -0.13 C0.79 0.11, 1.47 -0.07, 3.14 0.12" stroke="#000000" stroke-width="4" fill="none"></path></g></g><mask></mask><g stroke-linecap="round"><g transform="translate(38.077882279326786 122.64894597072544) rotate(0 1.7290219450657105 -0.08350026203106609)"><path d="M0.32 -0.28 C0.53 0.3, 1.68 0.16, 3.59 -0.22 M-0.13 0.02 C0.9 -0.04, 1.53 -0.12, 3.4 -0.09" stroke="#000000" stroke-width="4" fill="none"></path></g></g><mask></mask><g stroke-linecap="round"><g transform="translate(65.51119194472551 122.414473238543) rotate(0 1.4557035616617213 -0.10559779791822166)"><path d="M-0.28 -0.31 C1.55 -0.03, 2.69 0.27, 3.06 -0.18 M0.02 0.09 C0.75 -0.06, 1.49 0.15, 3.19 0.07" stroke="#000000" stroke-width="4" fill="none"></path></g></g><mask></mask><g stroke-linecap="round"><g transform="translate(31.512645778207343 122.88341870290833) rotate(0 1.5251389531877066 0.05004688833560067)"><path d="M-0.31 0.27 C0.71 0.16, 1.7 -0.19, 3.11 -0.17 M0.09 -0.07 C0.64 -0.15, 1.59 -0.1, 3.36 0.15" stroke="#000000" stroke-width="4" fill="none"></path></g></g><mask></mask><g stroke-linecap="round"><g transform="translate(58.945955443605726 122.64894597072589) rotate(0 1.6835436326967397 -0.04771259232495595)"><path d="M0.27 0.01 C1.44 0.34, 2.4 -0.14, 3.11 -0.25 M-0.07 -0.09 C0.58 0.1, 1.36 0.05, 3.43 0.15" stroke="#000000" stroke-width="4" fill="none"></path></g></g><mask></mask><g stroke-linecap="round"><g transform="translate(44.8775915126306 122.64894597072589) rotate(0 1.6731521195544587 -0.04955110258026707)"><path d="M0.01 0.13 C1.01 -0.25, 1.24 -0.2, 3.03 -0.26 M-0.09 -0.14 C1.14 -0.08, 2.12 0.16, 3.44 0.16" stroke="#000000" stroke-width="4" fill="none"></path></g></g><mask></mask><g stroke-linecap="round"><g transform="translate(72.31090117802864 122.41447323854254) rotate(0 1.6484899151002992 0.07199401673562988)"><path d="M0.13 0.3 C0.46 -0.18, 1.19 -0.25, 3.02 0.04 M-0.14 0.12 C1.08 0.09, 2.5 0.17, 3.44 -0.16" stroke="#000000" stroke-width="4" fill="none"></path></g></g><mask></mask><g stroke-linecap="round"><g transform="translate(78.87613767915025 122.64894597072589) rotate(0 1.7209461101203942 -0.015684887039924433)"><path d="M0.3 -0.22 C1.08 -0.18, 2.26 -0.27, 3.32 0.19 M0.12 -0.09 C0.93 0.18, 1.86 0.19, 3.12 0.05" stroke="#000000" stroke-width="4" fill="none"></path></g></g><mask></mask><g stroke-linecap="round"><g transform="translate(28.230027527646826 126.40050968565174) rotate(0 1.6256242382403343 -0.05939681611630476)"><path d="M-0.22 -0.18 C0.82 -0.28, 1.73 0.01, 3.47 -0.13 M-0.09 0.07 C0.95 0.13, 1.77 -0.18, 3.33 -0.14" stroke="#000000" stroke-width="4" fill="none"></path></g></g><mask></mask><g stroke-linecap="round"><g transform="translate(22.368209223075382 126.4005096856522) rotate(0 1.48789540323628 -0.013062076040796455)"><path d="M-0.18 -0.17 C0.86 -0.24, 2.27 0.21, 3.15 -0.18 M0.07 0.15 C0.85 0.18, 1.23 0.07, 3.14 0.05" stroke="#000000" stroke-width="4" fill="none"></path></g></g><mask></mask><g stroke-linecap="round"><g transform="translate(69.02828292746824 125.93156422128641) rotate(0 1.5816559162370254 -0.0677074020834425)"><path d="M-0.17 -0.25 C1.03 0.06, 2.77 -0.11, 3.1 -0.29 M0.15 0.15 C1.38 -0.18, 2.5 -0.16, 3.33 -0.09" stroke="#000000" stroke-width="4" fill="none"></path></g></g><mask></mask><g stroke-linecap="round"><g transform="translate(38.28720649668787 126.72749985540395) rotate(0 11.114218050084162 -0.3020730414427817)"><path d="M-1.52 -1.57 C5.92 1.15, 10.54 -1.21, 22.55 0.95 M0.94 0.97 C4.92 -0.04, 10.91 -0.16, 23.75 -1.11" stroke="#000000" stroke-width="4" fill="none"></path></g></g><mask></mask><g stroke-linecap="round"><g transform="translate(75.82799216077308 125.93156422128595) rotate(0 1.6315830224962724 -0.08419685800527077)"><path d="M-0.26 0.04 C1 -0.11, 1.44 -0.26, 3.52 -0.19 M0.16 -0.16 C1.18 -0.18, 2.31 -0.12, 3.18 -0.15" stroke="#000000" stroke-width="4" fill="none"></path></g></g><mask></mask><g stroke-linecap="round"><g transform="translate(10.978386555798352 129.3400852559057) rotate(0 40.32923772699775 -6.735694504498383)"><path d="M0.24 1.14 C19.29 -0.47, 38.41 2.09, 79.74 0.89 M-0.98 0.3 C30.79 -0.48, 62.78 -1.39, 79.99 0.34 M80.6 -0.25 C77.44 -5.2, 75.12 -7.79, 73.28 -12.66 M81.64 0.43 C78.27 -3.13, 77.56 -4.88, 71.24 -12.98 M70.6 -10.74 C55.14 -13.09, 37.62 -12.31, 6.71 -14.69 M71.05 -13.45 C55.01 -12.19, 39.34 -13.05, 8.21 -13.38 M6.01 -13.4 C6.24 -8.08, 1.96 -5.02, -0.62 0.84 M7.7 -12.87 C5.29 -9.84, 3.67 -5.22, 0.16 0.72" stroke="#000000" stroke-width="1" fill="none"></path></g></g><mask></mask><g stroke-linecap="round" transform="translate(10.527336247839003 128.74523700748023) rotate(0 40.44654630154747 0.8206545626401294)"><path d="M1.14 -0.8 C17.02 -1.86, 37.69 -1.25, 81.78 1.83 M0.3 -0.88 C32.17 0.22, 63.12 -0.11, 81.24 0.34 M80.87 -0.03 C80.79 0.64, 80.96 1.35, 80.89 1.5 M80.94 -0.07 C80.84 0.57, 80.94 0.96, 80.86 1.61 M82.81 1.8 C53.65 0.59, 28.21 0.5, -1.68 0.65 M80.11 1.02 C50.84 0.9, 19.68 1.89, -0.37 1.71 M-0.04 1.76 C0.1 0.95, 0 0.39, 0.09 -0.01 M0.02 1.64 C-0.05 1.14, 0.03 0.53, 0.08 -0.07" stroke="#000000" stroke-width="1" fill="none"></path></g><g stroke-linecap="round" transform="translate(21.019991013022718 69.83396304653115) rotate(0 28.66429150935761 16.35447306975618)"><path d="M-0.8 -1.1 C10.92 1.13, 24.23 0.56, 59.16 1.88 M-0.88 0.31 C22.19 -0.78, 44.61 0.17, 57.67 0.64 M56.92 -1.2 C57.81 9.51, 59.23 17.22, 55.56 32.9 M56.46 -0.54 C58.34 9.2, 56.99 16.7, 56.93 32.96 M57.49 31.77 C34.14 33.19, 11.45 31.58, -0.99 34.22 M56.71 33.05 C37.95 31.81, 19.73 31.89, 0.07 33.3 M1.4 33.97 C-0.99 23.03, -0.52 14.44, -0.11 0.88 M0.03 31.9 C0.64 25.43, 0.08 18.65, -0.85 0.07" stroke="#000000" stroke-width="1" fill="none"></path></g><g stroke-linecap="round" transform="translate(17.854609128554102 65.61345386723906) rotate(0 31.82967339382651 20.223273150773707)"><path d="M-1.1 -1.76 C21.33 -0.89, 40.63 2.09, 65.54 1.94 M0.31 -0.57 C12.26 -0.34, 26.08 0.9, 64.29 -0.37 M62.46 0.54 C64.49 13.33, 63.6 20.96, 63.85 39.68 M63.12 0.7 C64.53 15.34, 63.47 31.58, 63.91 41.39 M62.72 39.86 C48.15 39.82, 31.09 39.51, 1.51 41.15 M64 40.28 C48.59 40.88, 34.04 40.12, 0.59 40.41 M1.26 39.15 C0.12 31.21, 1.23 23.51, 0.88 -1.41 M-0.81 41.22 C0.16 26.84, 0.89 11.97, 0.07 -0.19" stroke="#000000" stroke-width="1" fill="none"></path></g><g stroke-linecap="round"><g transform="translate(45.46377334308852 106.35309108401498) rotate(0 0.021542369460291866 2.364020009005003)"><path d="M-0.43 0.36 C-0.3 1.98, 0.43 3.98, 0.48 4.44 M-0.14 -0.15 C-0.27 1.71, 0.04 3.41, -0.09 4.88" stroke="#000000" stroke-width="2" fill="none"></path></g></g><mask></mask><g stroke-linecap="round"><g transform="translate(52.966900772941585 106.11861835183254) rotate(0 -0.06174556332592829 2.3951169758651076)"><path d="M0.36 -0.28 C0.19 1.73, 0.44 3.04, -0.48 5.07 M-0.15 -0.22 C0.1 1.13, 0.17 2, -0.05 4.89" stroke="#000000" stroke-width="2" fill="none"></path></g></g><mask></mask><g stroke-linecap="round"><g transform="translate(39.119628136486426 111.74129801818935) rotate(0 9.537257874031127 -0.3546769691921554)"><path d="M-1.13 0.87 C6.6 1.71, 11.5 -2.04, 20.2 -1.68 M-0.88 0.34 C6.82 0.76, 12.61 -0.03, 19.45 -0.15" stroke="#000000" stroke-width="2" fill="none"></path></g></g><mask></mask><g transform="translate(183.80670426294193 133.5) rotate(0 60 11.5)"><text x="0" y="16" font-family="Virgil, Segoe UI Emoji" font-size="17.436144578313012px" fill="#000000" text-anchor="start" style="white-space: pre;" direction="ltr">192.168.0.1:80</text></g><g transform="translate(104.30670426294193 10) rotate(0 40.5 31)"><text x="40.5" y="14.666666666666668" font-family="Virgil, Segoe UI Emoji" font-size="16px" fill="#000000" text-anchor="middle" style="white-space: pre;" direction="ltr">conecta</text><text x="40.5" y="35.333333333333336" font-family="Virgil, Segoe UI Emoji" font-size="16px" fill="#000000" text-anchor="middle" style="white-space: pre;" direction="ltr">e troca</text><text x="40.5" y="56" font-family="Virgil, Segoe UI Emoji" font-size="16px" fill="#000000" text-anchor="middle" style="white-space: pre;" direction="ltr">mensagens</text></g></svg>